<svg xmlns="http://www.w3.org/2000/svg" viewBox="0 0 772.78 712.84" width="187" height="172"><defs><style>.cls-1{fill:#fff;}</style></defs><title>logo2</title><g id="Layer_2" data-name="Layer 2"><g id="Capa_1" data-name="Capa 1"><path class="cls-1" d="M167.49,404.2a22.56,22.56,0,0,1-5.75-1.82,11.37,11.37,0,0,1-5.05-4.78c0-2.24,1-3.36,3.08-3.36a21.7,21.7,0,0,1,7.86,2,17.71,17.71,0,0,0,7.58,2.25q6.16,0,11.36-5.05a33.06,33.06,0,0,0,8-13.19q5.61-16,5.61-28.34a102.6,102.6,0,0,0-3.93-27.78,136.35,136.35,0,0,0-10.38-26.38q-1.41-3.07-4.77-9.26-7-14-10.66-21.88a124.28,124.28,0,0,1-6.46-17.4A91.15,91.15,0,0,1,160.05,222,54.41,54.41,0,0,1,163,204.14a36.45,36.45,0,0,1,9.4-14.74A22.63,22.63,0,0,1,188.11,183q3.38,0,8.14,2.67c3.18,1.78,4.77,3.5,4.77,5.19,0,1.5-.56,2.24-1.68,2.24a10.71,10.71,0,0,1-4.49-1.4,9.86,9.86,0,0,0-4.77-1.4A15.82,15.82,0,0,0,178.71,195a28,28,0,0,0-7.15,11.78,40.6,40.6,0,0,0-2,12.91,96.37,96.37,0,0,0,2.81,22.59A111.71,111.71,0,0,0,180,264l9.82,20.48,2.8,5.9q5.9,12.06,9.12,19.92A113.23,113.23,0,0,1,207.19,328a110.68,110.68,0,0,1,3.09,25.25q0,16.28-8.42,33.11a36.74,36.74,0,0,1-11.22,13.19,25.81,25.81,0,0,1-15.43,5.05A53.25,53.25,0,0,1,167.49,404.2Z"/><path class="cls-1" d="M298,397a4.36,4.36,0,0,1-1.54-3.36V356.92q0-3.37-14.31-6.17t-23.57-2.81c-.38,0-1,1.4-1.82,4.21s-1.45,4.87-1.83,6.17q-3.64,14.6-7.29,31.15l-1.41,6.17a2.65,2.65,0,0,1-2.8,2.25,6.47,6.47,0,0,1-4.07-1.41,4.11,4.11,0,0,1-1.82-3.36l.28-.57v-.28l3.08-14q3.38-13.19,5.9-25.81,2.79-14.31,4.2-18.52,2.25-9.26,9-46.3l1.69-9.26q7.29-43.2,10.1-54.43,1.39-6.73,5-19.93a66.1,66.1,0,0,1,3.93-11.22q2.52-4.77,4.21-4.77,4.49,0,6.45,2.81,1.39,2.52,4.35,27.78t5.19,51.06l3.65,46.58q0,12.07,1.68,36.48,1.68,24.69,1.69,36.76v1.12a17.66,17.66,0,0,1-.85,5.61c-.75,1.5-2.52,2.25-5.33,2.25A5.41,5.41,0,0,1,298,397Zm-1.82-55.55q0-17.4-2-47.56T290,240.75q-.57-9.81-2.25-21.6l-1.12-11a30.24,30.24,0,0,1-.56-3.08l-.56-3.37a116.36,116.36,0,0,0-4.35,17.12q-2.1,10.94-4.35,25.81-6.73,41.82-11.5,62.85l-2.53,9.54q-4.22,14-4.21,21.33v1.68A93.45,93.45,0,0,0,286.88,344h1.68a6.2,6.2,0,0,0,2,.28Q296.14,344.29,296.14,341.49Z"/><path class="cls-1" d="M399.68,399.57a10.32,10.32,0,0,1-2.25-4.49l-.84-5.33a25.49,25.49,0,0,1-.84-4.21Q364.33,273,361.24,259.27q-2.53-10.09-11.51-56.12-.28,1.68-.28,11.51V316.23l.56,40.13.57,39.84-1.69,2.25h-6.45l-.84-2.25a71.12,71.12,0,0,0,.56-11.22l-.28-48.83-.56-48.82V223.92q-.29-11.79-.29-26.38a15.63,15.63,0,0,0-.28-3.09v-2.8q0-3.37,1.83-4.63t5.75-1.26a6.39,6.39,0,0,1,3.79,1.68,7.34,7.34,0,0,1,2.66,3.65l5.9,27.5q3.92,19.64,6.73,29.74,5.89,23.29,20.2,76.32,8.14,34.8,14.59,53.31,1.69-4.2,1.69-13.47,0-27.21.56-48.82l.56-48.82q0-12.06.28-21.89v-21.6L405,183.79c.93-2.62,2.9-3.93,5.89-3.93,1.5,0,2.25,2.72,2.25,8.14a51,51,0,0,1-.28,5.89,26.46,26.46,0,0,1-.14,3.23,10.6,10.6,0,0,0-.14,1.26v18q0,37.32-.28,66.5Q412,312.3,412,349.06q0,7-.85,22.17l-.56,22.17q0,8.13-7.29,8.13A4.8,4.8,0,0,1,399.68,399.57Z"/><path class="cls-1" d="M475.72,398a9.16,9.16,0,0,1-1.41-5.2V342.89l-.56-44.9q-.84-30-.84-44.89l.28-8.14V226.72q0-30.3-.56-30.3H440.92a7.6,7.6,0,0,1-4.07-1.12,3.48,3.48,0,0,1-1.82-3.09,4.36,4.36,0,0,1,.84-3.09c.56-.56,2.06-1,4.49-1.4a57.1,57.1,0,0,1,11.23-.84h28.06l30.86-.28c2.25,0,3.79.37,4.63,1.12a4.66,4.66,0,0,1,1.26,3.65c0,2.8-1.78,4.21-5.33,4.21h-25l-2.53.28.28,16.27v159.1l.28,20.76v.56a21.27,21.27,0,0,1-.28,3.79,4.35,4.35,0,0,1-1.12,2.39,3,3,0,0,1-2.8,1.4A4.71,4.71,0,0,1,475.72,398Z"/><path class="cls-1" d="M584.72,397a4.36,4.36,0,0,1-1.54-3.36V356.92q0-3.37-14.31-6.17t-23.57-2.81c-.38,0-1,1.4-1.82,4.21s-1.45,4.87-1.83,6.17q-3.64,14.6-7.29,31.15L533,395.64a2.65,2.65,0,0,1-2.8,2.25,6.47,6.47,0,0,1-4.07-1.41,4.11,4.11,0,0,1-1.82-3.36l.28-.57v-.28l3.08-14q3.38-13.19,5.9-25.81,2.79-14.31,4.2-18.52,2.25-9.26,9-46.3l1.69-9.26q7.29-43.2,10.1-54.43,1.39-6.73,5-19.93a66.1,66.1,0,0,1,3.93-11.22Q570,188,571.68,188q4.49,0,6.45,2.81,1.39,2.52,4.35,27.78t5.19,51.06l3.65,46.58q0,12.07,1.68,36.48,1.68,24.69,1.69,36.76v1.12a17.66,17.66,0,0,1-.85,5.61c-.75,1.5-2.52,2.25-5.33,2.25A5.41,5.41,0,0,1,584.72,397Zm-1.82-55.55q0-17.4-2-47.56t-4.21-53.18q-.57-9.81-2.25-21.6l-1.12-11a30.24,30.24,0,0,1-.56-3.08l-.56-3.37a116.36,116.36,0,0,0-4.35,17.12q-2.1,10.94-4.35,25.81Q556.8,286.5,552,307.53l-2.53,9.54q-4.21,14-4.21,21.33v1.68A93.45,93.45,0,0,0,573.64,344h1.68a6.2,6.2,0,0,0,2,.28Q582.9,344.29,582.9,341.49Z"/><path class="cls-1" d="M272.15,707.23l-3.37-12.34q-7.86-26.1-11.5-44.06Q255,641,251.67,623.61q-3.93-20.19-7.3-32.83l-2.8,1.69-3.65,1.68.56,108v4.21q0,5.61-5,5.61a5,5,0,0,1-3.65-1.4,4.58,4.58,0,0,1-1.4-3.37V703l.56-56.68.56-27.22q1.13-49.1,1.12-83.61v-36.2c0-1.68,1.69-2.52,5-2.52a25.35,25.35,0,0,1,13.61,3.92,28.11,28.11,0,0,1,10,10.67,61.17,61.17,0,0,1,7.58,30q0,12.92-5.61,28.06-1.68,4.21-4.21,9.68t-4.49,7.44q5.89,21.6,17.12,66.5l13.18,50.5a11.24,11.24,0,0,1,.28,3.09,9,9,0,0,1-1,4.35,3.17,3.17,0,0,1-2.94,1.82Q273.55,712.84,272.15,707.23ZM245.21,579.56a52.77,52.77,0,0,0,7.58-9,45.69,45.69,0,0,0,3.37-11.78,81.3,81.3,0,0,0,1.4-14,75.85,75.85,0,0,0-3.93-23.57,27.93,27.93,0,0,0-5.89-11.37q-3.93-4.35-8.7-4.35h-.56a1.14,1.14,0,0,1-.84.28v79.13Q239.88,584.89,245.21,579.56Z"/><path class="cls-1" d="M313.12,708.63a5,5,0,0,1-3.51-1.4,4.12,4.12,0,0,1-1.55-3.09c0-2.42,1.59-3.64,4.77-3.64h10.95q0-32.26-2-81.38-1.12-39.27-2.24-61.73l.28-14.31V524.56q0-14-.56-17.95h-9.82q-2.81,0-2.81-3.93a4.4,4.4,0,0,1,2.25-3.93c1.3-.56,4.77-.84,10.38-.84h7.85c2.81.19,6.36.28,10.67.28a6.24,6.24,0,0,1,3.64,1,3.36,3.36,0,0,1,1.41,2.95,5.87,5.87,0,0,1-.84,3.08,2.77,2.77,0,0,1-2.53,1.41,18.08,18.08,0,0,1-3.37-.28H330c-1.87,0-3,.18-3.37.56L326,508q0,21.88,3.65,88.39Q333,657.84,333,684.78v7.86q-.29,3.65-.28,7.58h10.1q6.45,0,6.45,3.92a5,5,0,0,1-1.26,3.23,3.52,3.52,0,0,1-2.67,1.55H330.23Q323.5,708.64,313.12,708.63Z"/><path class="cls-1" d="M408,709.62a9.2,9.2,0,0,1-1.4-5.19V654.48l-.56-44.9q-.84-30-.84-44.89l.28-8.14V538.31q0-30.3-.56-30.3H373.16a7.6,7.6,0,0,1-4.07-1.12,3.46,3.46,0,0,1-1.82-3.09,4.38,4.38,0,0,1,.84-3.09c.56-.56,2.05-1,4.49-1.4a57.05,57.05,0,0,1,11.22-.84h28.06l30.87-.28c2.24,0,3.79.38,4.63,1.12a4.66,4.66,0,0,1,1.26,3.65c0,2.8-1.78,4.21-5.33,4.21h-25l-2.53.28.28,16.27v159.1l.28,20.76v.56a22.26,22.26,0,0,1-.28,3.79,4.42,4.42,0,0,1-1.12,2.39,3,3,0,0,1-2.81,1.4A4.73,4.73,0,0,1,408,709.62Z"/><path class="cls-1" d="M517,708.63a4.36,4.36,0,0,1-1.54-3.36V668.51q0-3.36-14.31-6.17t-23.57-2.81q-.57,0-1.83,4.21t-1.82,6.17q-3.64,14.6-7.3,31.15l-1.4,6.17a2.66,2.66,0,0,1-2.81,2.25,6.47,6.47,0,0,1-4.06-1.41,4.12,4.12,0,0,1-1.83-3.36l.28-.57v-.28l3.09-14q3.36-13.19,5.89-25.81,2.81-14.31,4.21-18.52,2.25-9.25,9-46.3l1.68-9.26q7.31-43.2,10.1-54.43,1.41-6.74,5.06-19.92a67,67,0,0,1,3.92-11.23q2.54-4.77,4.21-4.77c3,0,5.15.94,6.46,2.81q1.39,2.52,4.35,27.78t5.19,51.06l3.64,46.58q0,12.07,1.69,36.48,1.68,24.69,1.68,36.76v1.12a17.67,17.67,0,0,1-.84,5.61Q525,710,520.75,710A5.41,5.41,0,0,1,517,708.63Zm-1.82-55.55q0-17.4-2-47.56T509,552.34q-.56-9.81-2.24-21.6l-1.12-11a30.24,30.24,0,0,1-.56-3.08l-.57-3.37a117.65,117.65,0,0,0-4.35,17.12q-2.1,10.93-4.34,25.81-6.73,41.82-11.51,62.85l-2.52,9.55q-4.22,14-4.21,21.32v1.68a93.09,93.09,0,0,0,28.34,3.93h1.68a6.14,6.14,0,0,0,2,.28C513.26,655.88,515.14,655,515.14,653.08Z"/><path class="cls-1" d="M121.09,451.72a4.08,4.08,0,0,1,0-8.15c15.1-.12,22.47-3.93,30.26-8,8.3-4.29,16.88-8.73,33.94-8.87s25.72,4.17,34.08,8.33c7.86,3.9,15.25,7.6,30.39,7.47s22.47-3.92,30.26-8c8.3-4.3,16.88-8.74,33.94-8.87h.78c16.55,0,25.06,4.23,33.3,8.33,7.85,3.9,15.24,7.59,30.38,7.47s22.47-3.93,30.26-8c8.3-4.29,16.88-8.73,33.94-8.86s25.71,4.16,34.08,8.32c7.73,3.85,15,7.48,29.67,7.48h.71c15.11-.12,22.47-3.93,30.26-8,8.3-4.29,16.89-8.73,33.94-8.87S597,427.84,605.33,432c7.73,3.84,15,7.48,29.67,7.48h.74a4.08,4.08,0,0,1,0,8.16c-17.07.14-25.71-4.17-34.08-8.33-7.86-3.9-15.25-7.59-30.38-7.47s-22.47,3.93-30.26,8c-8.3,4.29-16.89,8.73-33.94,8.86s-25.71-4.16-34.08-8.32c-7.86-3.91-15.24-7.58-30.38-7.48s-22.47,3.93-30.26,8c-8.3,4.29-16.89,8.73-33.94,8.87h-.79c-16.54,0-25.05-4.23-33.29-8.33-7.86-3.91-15.29-7.6-30.38-7.48s-22.47,3.93-30.26,8c-8.31,4.29-16.89,8.73-34,8.87H249c-16.54,0-25.06-4.23-33.3-8.33-7.73-3.84-15-7.48-29.67-7.48h-.71c-15.11.12-22.47,3.92-30.26,8-8.31,4.3-16.89,8.74-33.95,8.87Z"/><path class="cls-1" d="M604.78,654.87c-3.17-128.12,97.56-87.2,133-114.92C729.07,665.47,639.8,630.08,604.78,654.87Z"/><path class="cls-1" d="M611.43,565.53c-25.55-59.21,29.16-59,40.51-78.63C671.44,547.13,623.12,547.38,611.43,565.53Z"/><path class="cls-1" d="M151.92,654.87c3.18-128.12-97.56-87.2-133-114.92C27.63,665.47,116.9,630.08,151.92,654.87Z"/><path class="cls-1" d="M145.27,565.53c25.55-59.21-29.16-59-40.5-78.63C85.26,547.13,133.58,547.38,145.27,565.53Z"/><path class="cls-1" d="M744.06,293.77a4.07,4.07,0,0,1-.64-8.1l24.64-3.91a4.08,4.08,0,1,1,1.28,8.06l-24.64,3.9A3.52,3.52,0,0,1,744.06,293.77Z"/><path class="cls-1" d="M667.25,305.94a4.08,4.08,0,0,1-.63-8.11L723,288.9A4.07,4.07,0,1,1,724.3,297l-56.41,8.94A4.72,4.72,0,0,1,667.25,305.94Z"/><path class="cls-1" d="M84.22,397.26a4.08,4.08,0,0,1-.68-8.1l32.84-5.58a4.08,4.08,0,1,1,1.37,8L84.91,397.2A4,4,0,0,1,84.22,397.26Z"/><path class="cls-1" d="M4.07,410.88a4.08,4.08,0,0,1-.67-8.1l63.78-10.84a4.08,4.08,0,1,1,1.37,8L4.76,410.83A5.34,5.34,0,0,1,4.07,410.88Z"/><path class="cls-1" d="M702.33,187.34a4.08,4.08,0,0,1-1.85-7.71l19.28-9.83a4.08,4.08,0,0,1,3.7,7.27l-19.28,9.82A4.07,4.07,0,0,1,702.33,187.34Z"/><path class="cls-1" d="M644.56,216.78a4.08,4.08,0,0,1-1.86-7.72l47.42-24.16a4.08,4.08,0,1,1,3.7,7.27l-47.41,24.16A4.1,4.1,0,0,1,644.56,216.78Z"/><path class="cls-1" d="M636.15,95.62a4.09,4.09,0,0,1-2.88-7L647.82,74.1a4.08,4.08,0,0,1,5.77,5.77L639,94.42A4,4,0,0,1,636.15,95.62Z"/><path class="cls-1" d="M604.71,127.06a4.08,4.08,0,0,1-2.89-7l23.62-23.62a4.08,4.08,0,0,1,5.77,5.77l-23.62,23.61A4,4,0,0,1,604.71,127.06Z"/><path class="cls-1" d="M578.54,153.22a4.08,4.08,0,0,1-2.88-7l15.79-15.8a4.08,4.08,0,0,1,5.77,5.77L581.43,152A4.1,4.1,0,0,1,578.54,153.22Z"/><path class="cls-1" d="M507.76,101.4a4,4,0,0,1-1.85-.45,4.07,4.07,0,0,1-1.78-5.48l21.74-42.68a4.08,4.08,0,1,1,7.27,3.71L511.4,99.17A4.1,4.1,0,0,1,507.76,101.4Z"/><path class="cls-1" d="M491.91,132.51a4.07,4.07,0,0,1-3.63-5.93l10.2-20a4.08,4.08,0,0,1,7.27,3.7l-10.21,20A4.06,4.06,0,0,1,491.91,132.51Z"/><path class="cls-1" d="M430.12,37.46a4.6,4.6,0,0,1-.64-.05,4.09,4.09,0,0,1-3.4-4.67l4.65-29.3a4.08,4.08,0,1,1,8,1.28L434.14,34A4.09,4.09,0,0,1,430.12,37.46Z"/><path class="cls-1" d="M415.88,127.36a4.6,4.6,0,0,1-.64,0,4.08,4.08,0,0,1-3.39-4.67l12.26-77.45a4.08,4.08,0,1,1,8.06,1.28L419.9,123.92A4.09,4.09,0,0,1,415.88,127.36Z"/><path class="cls-1" d="M337.43,80.16a4.09,4.09,0,0,1-4-3.44l-7.85-49.55a4.08,4.08,0,0,1,8.06-1.27l7.84,49.54a4.08,4.08,0,0,1-3.39,4.67A4.6,4.6,0,0,1,337.43,80.16Z"/><path class="cls-1" d="M344.54,125.06a4.08,4.08,0,0,1-4-3.44l-4.66-29.44a4.08,4.08,0,1,1,8.05-1.28l4.67,29.44a4.08,4.08,0,0,1-3.39,4.67A4.74,4.74,0,0,1,344.54,125.06Z"/><path class="cls-1" d="M229.84,55.88a4.07,4.07,0,0,1-3.64-2.23l-8.41-16.49a4.08,4.08,0,1,1,7.27-3.7L233.47,50a4.08,4.08,0,0,1-3.63,5.93Z"/><path class="cls-1" d="M270.28,135.27a4.08,4.08,0,0,1-3.63-2.23L231.45,64a4.07,4.07,0,1,1,7.26-3.7l35.2,69.08a4.09,4.09,0,0,1-3.63,5.94Z"/><path class="cls-1" d="M150.56,121.54a4.07,4.07,0,0,1-2.89-1.2L124.59,97.26a4.08,4.08,0,0,1,5.77-5.77l23.08,23.08a4.09,4.09,0,0,1,0,5.77A4,4,0,0,1,150.56,121.54Z"/><path class="cls-1" d="M183.49,154.46a4.06,4.06,0,0,1-2.89-1.19l-24.68-24.68a4.08,4.08,0,0,1,5.77-5.76l24.68,24.67a4.08,4.08,0,0,1-2.88,7Z"/><path class="cls-1" d="M62.79,185.55a4.09,4.09,0,0,1-2-.55L39.32,172.6a4.08,4.08,0,1,1,4.08-7.06l21.43,12.4a4.08,4.08,0,0,1-2,7.61Z"/><path class="cls-1" d="M120.76,219.08a4,4,0,0,1-2-.54L72.18,191.61a4.08,4.08,0,0,1,4.08-7.06l46.54,26.92a4.08,4.08,0,0,1-2,7.61Z"/><path class="cls-1" d="M87.46,305a4.72,4.72,0,0,1-.64-.05l-54.69-8.66a4.08,4.08,0,0,1,1.28-8.06l54.69,8.66a4.08,4.08,0,0,1-.64,8.11Z"/><path class="cls-1" d="M107.27,308.11a3.56,3.56,0,0,1-.65-.05l-6.3-1A4.08,4.08,0,1,1,101.6,299l6.3,1a4.07,4.07,0,0,1-.63,8.1Z"/><path class="cls-1" d="M702.33,402.36a3.52,3.52,0,0,1-.64-.05l-25.26-4a4.08,4.08,0,0,1,1.27-8.06l25.27,4a4.07,4.07,0,0,1-.64,8.1Z"/><path class="cls-1" d="M751.73,410.19a4.6,4.6,0,0,1-.64-.05L712.41,404a4.08,4.08,0,0,1,1.28-8.06l38.67,6.13a4.08,4.08,0,0,1-.63,8.11Z"/></g></g></svg>
